<?xml version="1.0" encoding="UTF-8" standalone="no"?>
<!-- Created with Inkscape (http://www.inkscape.org/) -->

<svg
   xmlns:dc="http://purl.org/dc/elements/1.1/"
   xmlns:cc="http://creativecommons.org/ns#"
   xmlns:rdf="http://www.w3.org/1999/02/22-rdf-syntax-ns#"
   xmlns:svg="http://www.w3.org/2000/svg"
   xmlns="http://www.w3.org/2000/svg"
   xmlns:sodipodi="http://sodipodi.sourceforge.net/DTD/sodipodi-0.dtd"
   xmlns:inkscape="http://www.inkscape.org/namespaces/inkscape"
   width="300mm"
   height="300mm"
   viewBox="0 0 300 300"
   version="1.1"
   id="svg23553"
   inkscape:version="0.92.1 r15371"
   sodipodi:docname="esqinferiorizquierda.svg">
  <defs
     id="defs23547" />
  <sodipodi:namedview
     id="base"
     pagecolor="#ffffff"
     bordercolor="#666666"
     borderopacity="1.0"
     inkscape:pageopacity="0.0"
     inkscape:pageshadow="2"
     inkscape:zoom="0.25"
     inkscape:cx="979.34104"
     inkscape:cy="575.31156"
     inkscape:document-units="mm"
     inkscape:current-layer="layer1"
     showgrid="false"
     inkscape:window-width="1366"
     inkscape:window-height="706"
     inkscape:window-x="-8"
     inkscape:window-y="-8"
     inkscape:window-maximized="1"
     units="in" />
  <metadata
     id="metadata23550">
    <rdf:RDF>
      <cc:Work
         rdf:about="">
        <dc:format>image/svg+xml</dc:format>
        <dc:type
           rdf:resource="http://purl.org/dc/dcmitype/StillImage" />
        <dc:title></dc:title>
      </cc:Work>
    </rdf:RDF>
  </metadata>
  <g
     inkscape:label="Layer 1"
     inkscape:groupmode="layer"
     id="layer1"
     transform="translate(0,3)">
    <path
       sodipodi:type="spiral"
       style="fill:none;fill-rule:evenodd;stroke:#000000;stroke-width:0.26458332"
       id="path16"
       sodipodi:cx="62.441666"
       sodipodi:cy="208.10001"
       sodipodi:expansion="1"
       sodipodi:revolution="2.68695"
       sodipodi:radius="27.516666"
       sodipodi:argument="-18.453402"
       sodipodi:t0="0"
       d="M 62.441666,208.10001 C 63.862746,208.6944 62.341548,210.30885 61.453747,210.46194 59.047861,210.8768 57.534887,208.19778 57.717806,206.12417 58.045006,202.41497 62.007071,200.37104 65.405421,201.01422 70.392636,201.95811 73.031516,207.3504 71.889385,212.05168 70.367104,218.31775 63.499293,221.56628 57.502073,219.90966 49.955185,217.82496 46.091112,209.4625 48.270087,202.1725 50.909117,193.34333 60.776056,188.86067 69.357095,191.5665 79.469552,194.75523 84.57262,206.13235 81.337104,216.00335 77.601573,227.39981 64.710639,233.12446 53.5504,229.35737 40.869427,225.07697 34.522393,210.66979 38.822368,198.22082 42.298288,188.15759 51.874667,181.20926 62.441647,180.58334" />
  </g>
</svg>
