<?xml version="1.0" encoding="UTF-8" standalone="no"?>
<!-- Created with Inkscape (http://www.inkscape.org/) -->

<svg
   xmlns:dc="http://purl.org/dc/elements/1.1/"
   xmlns:cc="http://creativecommons.org/ns#"
   xmlns:rdf="http://www.w3.org/1999/02/22-rdf-syntax-ns#"
   xmlns:svg="http://www.w3.org/2000/svg"
   xmlns="http://www.w3.org/2000/svg"
   xmlns:sodipodi="http://sodipodi.sourceforge.net/DTD/sodipodi-0.dtd"
   xmlns:inkscape="http://www.inkscape.org/namespaces/inkscape"
   width="170mm"
   height="200mm"
   viewBox="0 0 170 200"
   version="1.1"
   id="svg23553"
   inkscape:version="0.92.1 r15371"
   sodipodi:docname="esqinferiorizquierda.svg">
  <defs
     id="defs23547" />
  <sodipodi:namedview
     id="base"
     pagecolor="#ffffff"
     bordercolor="#666666"
     borderopacity="1.0"
     inkscape:pageopacity="0.0"
     inkscape:pageshadow="2"
     inkscape:zoom="0.25"
     inkscape:cx="277.34104"
     inkscape:cy="575.31156"
     inkscape:document-units="mm"
     inkscape:current-layer="layer1"
     showgrid="false"
     inkscape:window-width="1366"
     inkscape:window-height="706"
     inkscape:window-x="-8"
     inkscape:window-y="-8"
     inkscape:window-maximized="1"
     units="in" />
  <metadata
     id="metadata23550">
    <rdf:RDF>
      <cc:Work
         rdf:about="">
        <dc:format>image/svg+xml</dc:format>
        <dc:type
           rdf:resource="http://purl.org/dc/dcmitype/StillImage" />
        <dc:title></dc:title>
      </cc:Work>
    </rdf:RDF>
  </metadata>
  <g
     inkscape:label="Layer 1"
     inkscape:groupmode="layer"
     id="layer1"
     transform="translate(0,-97)">
    <path
       sodipodi:type="spiral"
       style="fill:none;fill-rule:evenodd;stroke:#000000;stroke-width:0.26458332"
       id="path3705"
       sodipodi:cx="93.133331"
       sodipodi:cy="205.98334"
       sodipodi:expansion="1"
       sodipodi:revolution="2.68695"
       sodipodi:radius="100.54723"
       sodipodi:argument="-18.463926"
       sodipodi:t0="0"
       d="M 93.133331,205.98334 C 98.348601,208.1005 92.852464,214.05795 89.614463,214.65146 80.839679,216.25982 75.208477,206.52928 75.79709,198.9456 76.849981,185.38018 91.248154,177.75959 103.68994,179.97898 121.94875,183.23601 131.79819,202.83712 127.80581,220.05881 122.48461,243.01262 97.515614,255.14637 75.538988,249.32394 47.883648,241.99701 33.443322,211.59046 41.124608,184.87013 50.427674,152.50822 86.307557,135.7498 117.76541,145.30649 154.83741,156.56872 173.92076,197.94274 162.4783,234.13429 149.26752,275.91885 102.38618,297.33158 61.463514,283.99642 14.964577,268.84417 -8.7805689,216.44664 6.4521256,170.79465 18.765601,133.89149 53.488999,108.13505 92.075048,105.44167" />
  </g>
</svg>
