<?xml version="1.0" encoding="UTF-8" standalone="no"?>
<!-- Created with Inkscape (http://www.inkscape.org/) -->

<svg
   xmlns:dc="http://purl.org/dc/elements/1.1/"
   xmlns:cc="http://creativecommons.org/ns#"
   xmlns:rdf="http://www.w3.org/1999/02/22-rdf-syntax-ns#"
   xmlns:svg="http://www.w3.org/2000/svg"
   xmlns="http://www.w3.org/2000/svg"
   xmlns:sodipodi="http://sodipodi.sourceforge.net/DTD/sodipodi-0.dtd"
   xmlns:inkscape="http://www.inkscape.org/namespaces/inkscape"
   width="210mm"
   height="297mm"
   viewBox="0 0 210 297"
   version="1.1"
   id="svg8"
   inkscape:version="0.92.4 (5da689c313, 2019-01-14)"
   sodipodi:docname="hugo.svg">
  <defs
     id="defs2" />
  <sodipodi:namedview
     id="base"
     pagecolor="#ffffff"
     bordercolor="#666666"
     borderopacity="1.0"
     inkscape:pageopacity="0.0"
     inkscape:pageshadow="2"
     inkscape:zoom="0.35"
     inkscape:cx="-1057.1429"
     inkscape:cy="560"
     inkscape:document-units="mm"
     inkscape:current-layer="layer1"
     showgrid="false"
     inkscape:window-width="1920"
     inkscape:window-height="1017"
     inkscape:window-x="-8"
     inkscape:window-y="-8"
     inkscape:window-maximized="1" />
  <metadata
     id="metadata5">
    <rdf:RDF>
      <cc:Work
         rdf:about="">
        <dc:format>image/svg+xml</dc:format>
        <dc:type
           rdf:resource="http://purl.org/dc/dcmitype/StillImage" />
        <dc:title />
      </cc:Work>
    </rdf:RDF>
  </metadata>
  <g
     inkscape:label="Capa 1"
     inkscape:groupmode="layer"
     id="layer1">
    <path
       style="fill:none;stroke:#000000;stroke-width:0.31599963"
       id="path3055"
       d="M 49.802675,129.04761 C 53.277763,112.81887 70.864627,97.078612 88.594432,95.040992 M 105.40128,92.981412 C 133.81793,93.219722 156.59602,108.51601 163.19322,133.1643 166.12224,139.86144 166.12224,145.86918 163.19322,151.1875 162.74261,164.58179 155.42004,175.41541 141.22553,183.68836 123.65138,193.34013 105.51395,194.42348 86.813232,186.93845 M 58.424219,158.57405 C 57.973605,160.74078 59.212814,163.20296 62.141828,165.96062 62.141828,169.11222 63.493685,171.47592 66.197401,173.05172 67.774574,177.97609 72.618726,181.91559 80.729872,184.87021 M 28.007419,134.6416 C 41.751312,131.29303 53.805365,128.83084 64.169614,127.25505 M 32.738921,163.00599 C 49.637143,158.67255 62.592441,154.83153 71.604832,151.48296 86.024655,146.55859 94.473766,139.95992 96.952168,131.68698 91.77005,127.94446 80.842539,126.46714 64.169614,127.25505 M 28.007419,134.6416 C 20.572201,135.62648 17.417868,140.64933 18.544416,149.71018 21.24813,159.16498 25.979632,163.59692 32.738921,163.00599 M 101.00775,143.80094 C 97.628098,146.36161 97.628098,149.21775 101.00775,152.36934 102.58492,153.5512 104.50006,153.64968 106.75316,152.66481 113.06182,155.81641 117.56802,154.73305 120.27174,149.41472 123.20077,144.49035 122.29951,141.63422 117.56802,140.84631 M 105.73927,146.4601 C 106.86581,150.59657 110.3581,152.27086 116.21616,151.48296 M 119.25783,146.16463 C 118.58192,148.92229 117.00474,150.49809 114.52634,150.89204 M 112.83652,132.27791 C 112.16057,134.83858 112.6112,137.30076 114.18836,139.66447 M 114.18836,131.39152 C 112.6112,128.23992 112.27324,125.08832 113.17447,121.93672 118.13128,101.05739 127.8196,102.04226 142.23943,124.89134 M 137.50792,131.09605 C 135.25482,128.92934 133.22704,126.86109 131.42456,124.89134 125.5665,121.73975 121.28561,123.11857 118.58192,129.02782 118.3566,131.19455 117.79332,133.45976 116.89209,135.82346 115.99083,138.5811 118.24393,137.99017 123.65138,134.05068 127.48164,132.08093 132.21314,131.39152 137.84589,131.98244 M 107.09111,167.43792 C 105.73927,160.74078 107.09111,157.29372 111.14668,157.09675 113.17447,157.09675 115.42757,156.6043 117.90599,155.61943 123.3134,154.83153 126.46775,156.89977 127.36899,161.82414 127.36899,163.59692 128.27022,165.07423 130.07271,166.25608 130.07271,170.58953 128.72085,174.33205 126.01712,177.48365 M 107.09111,168.91524 C 105.73927,171.67289 105.96456,173.64264 107.76703,174.82449 113.85041,181.32466 119.14518,182.01407 123.65138,176.89272 M 108.44298,168.02885 C 107.09111,171.5744 107.31642,173.54415 109.11891,173.9381 M 108.44298,168.02885 C 107.76703,161.33171 109.68219,158.27859 114.18836,158.86952 118.69456,156.89977 121.6236,156.89977 122.97544,158.86952 123.65138,160.6423 124.66528,162.51355 126.01712,164.4833 128.49553,165.86213 129.05881,167.53642 127.70696,169.50617 127.25634,176.40029 124.32729,179.65038 118.91986,179.25642 113.73775,178.6655 110.47077,176.89272 109.11891,173.9381 M 116.21616,128.14143 C 117.34271,121.44429 120.94767,118.78513 127.03103,120.16395 131.98784,121.3458 135.36747,124.30043 137.16996,129.02782 M 25.641667,137.30076 C 30.823783,136.70985 34.541392,139.56598 36.794494,145.86918 38.822281,154.33909 37.357774,159.36196 32.400956,160.93776 26.76821,160.34683 23.050601,156.6043 21.24813,149.71018 20.346885,143.40699 21.81141,139.27051 25.641667,137.30076 M 32.400956,160.93776 C 26.76821,160.34683 23.050601,156.6043 21.24813,149.71018 20.346885,143.40699 21.81141,139.27051 25.641667,137.30076 M 26.655561,139.36901 C 29.80989,139.56598 32.288308,141.53572 34.090779,145.27825 36.118565,151.58145 35.89325,156.30884 33.41485,159.46044 28.683348,159.85439 25.191054,156.99825 22.937952,150.89204 21.81141,143.80094 23.050601,139.95992 26.655561,139.36901 M 27.33149,144.0964 C 29.584592,143.70245 31.274414,144.98279 32.400956,147.93741 33.076885,152.07388 30.685085,154.44928 27.652855,153.33808 24.620642,152.22687 23.72653,145.86918 27.33149,144.0964 M 29.320479,152.66481 C 26.565235,153.17766 26.07158,146.48363 27.51988,145.66331 30.616939,145.38962 32.075722,152.15195 29.320479,152.66481 Z M 29.697241,135.23253 C 37.357774,137.59623 41.075383,143.3085 40.850068,152.36934 40.850068,156.11187 38.93493,159.26346 35.104672,161.82414 M 42.53989,131.98244 C 50.876352,137.10379 53.805365,145.47522 51.326965,157.09675 M 54.368645,129.61875 C 62.254494,134.34614 65.296174,142.22514 63.493685,153.25573 M 66.197401,127.84597 C 72.731392,133.1643 75.435108,140.45237 74.308548,149.71018 M 78.364121,127.84597 C 82.194397,131.78546 83.996868,137.59623 83.771552,145.27825 M 87.489161,128.73236 C 90.418192,131.09605 91.432086,134.83858 90.530841,139.95992 M 98.304018,136.70985 C 95.825623,139.86144 95.37501,142.32363 96.952168,144.0964 96.952168,147.64195 96.388898,150.49809 95.262343,152.66481 M 96.952168,147.64195 C 97.853408,152.56632 96.121759,154.48153 95.220515,156.64826 92.291484,160.1938 93.131821,168.77217 95.610221,178.42393 M 123.98935,143.80094 C 124.21464,146.75556 125.22854,147.83893 127.03103,147.05102 131.3119,147.05102 131.87518,147.74043 128.72085,149.11926 131.42456,151.48296 134.3536,153.64968 137.50792,155.61943 138.40917,152.86179 137.28261,150.69506 134.12828,149.11926 M 86.475268,153.25573 C 85.574041,165.27121 84.334832,175.11995 82.757659,182.80197 78.251472,193.63559 77.575543,198.85542 80.729872,198.46148 83.16762,198.15639 85.461374,192.55223 84.785446,187.82483 84.560148,181.71861 85.348726,175.11995 87.151197,168.02885 M 84.109517,183.3929 C 78.251472,194.02954 77.688192,199.24937 82.419694,199.0524 84.447481,198.2645 85.12341,195.11291 84.447481,189.59761 M 89.854912,164.18785 C 86.737776,173.51706 90.487033,178.23781 92.558628,184.57475 M 105.40128,150.00565 103.71146,150.59657 M 141.90146,135.52799 C 146.40765,134.7401 148.99872,138.38413 149.67464,146.4601 M 141.90146,133.1643 C 145.50642,131.78546 148.09747,133.45976 149.67464,138.18715 M 141.22553,131.98244 C 143.70393,129.81572 146.85826,130.30816 150.68852,133.45976 M 144.26721,128.43689 C 146.74561,127.45202 149.67464,128.63387 153.05429,131.98244 M 129.39676,155.61943 C 133.67765,156.21036 135.70544,159.65742 135.48012,165.96062 M 132.43844,166.25608 C 134.01563,169.40769 133.90296,172.06685 132.10049,174.23356 M 101.00775,165.36969 C 99.430588,168.52129 99.543238,172.16533 101.34571,176.3018 M 104.04943,169.21071 C 102.02164,171.77138 102.13431,174.43053 104.38739,177.18819 M 89.516948,142.61909 C 89.516948,145.17976 89.178983,147.54347 88.503055,149.71018 87.376512,154.24061 88.16509,155.61943 90.868806,153.84666 M 89.854912,151.77843 C 88.72837,153.94514 89.178983,154.24061 91.20677,152.66481 M 90.192877,153.84666 C 91.77005,151.87691 92.445979,149.21775 92.220663,145.86918 M 91.20677,152.96027 C 92.33333,150.20263 93.121908,146.65708 93.572521,142.32363 93.797837,140.35388 94.473766,138.28564 95.600308,136.11892 M 161.84135,98.299732 C 163.41854,100.66343 166.12224,102.04226 169.95251,102.43621 172.88152,105.78478 175.35994,107.65605 177.38773,108.04999 181.66862,109.82276 185.16091,110.31521 187.86463,109.5273 M 190.23038,111.00462 C 185.04826,114.15622 184.03437,118.48966 187.1887,124.00496 182.00658,133.0658 185.61152,137.99017 198.00356,138.77808 M 189.89241,100.95889 C 188.08994,107.45907 191.01896,111.69403 198.67949,113.66378 198.67949,116.22445 200.144,117.99722 203.07303,118.9821 M 204.08692,155.61943 C 191.46957,159.36196 184.82295,164.38482 184.147,170.68801 181.66862,170.0971 178.9649,170.39255 176.03587,171.5744 173.10686,173.54415 171.1917,175.11995 170.29048,176.3018 M 200.70728,187.52936 C 194.62392,185.36265 191.35694,187.13543 190.90631,192.84769 179.41552,191.27189 172.99417,193.34013 171.64233,199.0524 M 22.599987,90.322252 C 30.485819,91.110162 36.047745,89.310112 35.822447,86.552462 36.498376,82.219022 37.132459,81.655362 41.188032,83.231152 44.342361,86.185792 48.397934,86.087292 53.354752,82.935702 M 7.3915871,176.3018 C 10.545922,176.3018 12.348399,177.18819 12.799018,178.96097 19.332997,178.37004 22.374672,181.42315 21.924059,188.12029 25.979632,189.69609 27.782103,192.15828 27.33149,195.50685 M 50.651037,177.77911 C 50.425721,178.96097 46.921143,181.10853 49.718126,181.90635 56.644427,181.07383 63.944299,183.78684 62.817757,187.52936 M 163.86915,168.02885 C 165.44632,167.24095 166.12224,167.93037 165.89692,170.0971 164.77038,172.85474 165.33366,174.13508 167.58676,173.9381 M 171.64233,152.66481 C 169.83986,154.24061 169.05127,156.30884 169.27658,158.86952 168.60065,160.6423 167.58676,162.1196 166.2349,163.30146 M 78.702086,175.11995 C 80.504575,174.33205 81.405801,173.44567 81.405801,172.46079 81.856432,170.88499 82.532361,169.90012 83.433588,169.50617 M 125.34119,183.3929 C 118.80721,181.8171 113.06182,183.3929 108.105,188.12029 M 111.82261,181.62013 C 118.13128,182.80197 123.53872,181.71861 128.04492,178.37004 M 81.067837,159.46044 C 82.194397,155.52095 84.785446,150.69506 88.841019,144.98279 M 80.053943,156.21036 C 81.180503,153.45271 82.982974,150.79355 85.461374,148.23288 M 121.96154,138.48262 C 124.21464,133.75521 128.49553,132.17942 134.80421,133.75521 M 151.36447,117.80025 C 151.81508,120.36093 150.57587,122.1337 147.64684,123.11857 M 172.91273,156.52314 C 176.06706,152.38666 174.55081,151.04441 171.56087,149.46862 174.94051,150.84745 177.54148,145.3748 177.54148,145.3748 177.54148,145.3748 178.35978,150.70372 182.41535,150.30976 179.0357,151.88556 179.49698,153.21916 182.2007,156.17378 177.91981,151.84034 175.13463,153.35422 171.9803,157.68767 M 162.17933,109.5273 C 164.43243,111.69403 164.65773,113.56529 162.85526,115.14109 165.78429,113.95924 167.81208,114.05772 168.9386,115.43656 168.488,113.07285 169.83986,111.39856 172.99417,110.41369 169.16392,110.41369 167.47411,109.33033 167.75573,107.01587 167.13613,109.23185 165.33366,110.11823 162.17933,109.5273 Z M 57.74829,86.481242 C 56.171134,88.844952 56.621748,90.026792 59.100148,90.026792 57.297677,91.208642 57.18501,93.178392 58.762183,95.936042 56.959712,92.784442 54.931925,91.701082 52.678823,92.685952 53.354752,91.504112 53.129437,90.420742 52.002894,89.435862 54.255997,89.829822 55.495188,89.238892 55.720503,87.663092 M 192.59613,143.21001 C 188.95551,143.80094 189.65091,146.95254 191.58224,152.66481 M 43.215819,170.98348 C 41.188032,172.36231 39.148121,173.99136 44.555552,177.73388 38.021579,175.37018 37.921036,176.3018 36.794494,178.6655 38.371668,174.33205 37.470423,172.75626 34.090779,173.9381 37.245108,171.5744 38.146352,169.2646 37.30145,167.78729 38.539642,170.72292 39.459287,171.68042 43.215819,170.98348 Z M 33.076885,188.41575 C 35.780601,185.06718 39.610859,186.83996 44.567676,193.73407 M 52.678823,190.48399 C 50.876352,192.84769 53.129437,194.91593 59.438112,196.6887 M 71.604832,191.07491 C 72.173711,194.15542 71.529109,198.34848 74.757307,196.4901 M 173.33216,138.48262 C 173.78277,140.64933 174.90933,141.04329 176.7118,139.66447 179.1902,138.6796 180.20409,139.07354 179.75348,140.84631 M 30.711134,121.05034 C 33.640165,120.85336 34.428743,122.23218 33.076885,125.18681 31.049099,126.76261 29.021312,126.76261 26.993525,125.18681 26.092281,121.64126 27.33149,119.27756 30.711134,118.09572 M 58.066445,106.41293 C 58.291761,107.79175 57.165201,108.1857 54.686801,107.59477 53.785556,106.21595 54.912117,105.23108 58.066445,104.64015 M 68.794262,115.21724 C 69.440719,110.42853 66.805541,110.53588 66.550485,113.63819 66.295429,116.74049 67.918943,115.13001 68.140514,112.58711 M 78.026157,102.73167 C 77.481348,100.36471 79.509028,100.37097 79.715979,102.43621 80.017125,103.84269 79.058522,104.653 78.497114,103.63257 M 92.558628,96.231502 C 94.81173,95.443592 95.969599,93.300262 94.924379,92.390492 93.879176,91.480712 91.094121,93.867802 92.220663,96.231502 M 96.276238,94.458722 C 97.402798,93.473852 98.867308,92.981412 100.66978,92.981412 M 125.90634,100.36797 C 130.5511,103.88776 123.98002,102.18754 121.73437,103.74883 M 146.63295,120.16395 C 145.73172,117.40631 146.85826,117.01235 150.01261,118.9821 M 91.882699,127.25505 61.127934,86.776702 M 88.16509,117.50479 77.012263,92.390492 M 92.220663,121.05034 79.378014,88.254022 M 65.987687,110.4007 44.567676,91.799572 M 91.544735,124.59588 69.239081,92.981412 M 85.12341,122.52765 71.266868,108.04999 M 83.771552,122.23218 56.058468,95.049652 M 83.095623,123.41404 69.91501,113.36831 M 80.729872,123.41404 68.901117,116.02747 M 80.729872,124.89134 19.896272,97.117882 M 75.99837,121.64126 32.400956,101.84528 M 93.234557,124.30043 V 116.6184 M 94.586415,121.3458 97.966058,89.731332 M 97.628098,113.66378 100.33182,90.617722 M 99.655888,105.09537 104.04943,92.390492 M 101.68369,108.93638 109.79484,91.208642 M 98.304018,121.3458 105.73927,109.23185 M 109.11891,105.39083 120.6097,93.572342 M 109.79484,94.458722 114.52634,90.322252 M 91.544735,108.34546 89.178983,91.504112 M 98.304018,126.36866 125.67917,93.572342 M 109.45688,116.6184 139.87368,92.685952 M 99.993848,126.36866 145.61907,94.163272 M 119.59581,115.14109 155.42004,92.981412 M 63.155721,93.276882 59.438112,88.844952 M 53.016788,96.526962 48.62325,92.390492 M 46.595463,96.526962 41.188032,92.095032 M 43.891748,99.186122 34.428743,92.095032 M 50.313072,100.95889 43.215819,95.345112 M 61.465899,114.84563 41.525996,100.0725 M 40.850068,104.79991 23.613881,95.640572 M 39.49821,98.595202 34.428743,95.345112 M 67.211294,86.776702 63.83165,82.049312 M 70.928903,87.663092 69.239081,85.299402 M 43.553783,104.20898 31.049099,96.822432 M 123.98935,133.45976 C 123.53872,130.89908 124.43996,129.32328 126.69306,128.73236 128.94616,128.33841 130.29802,129.32328 130.74864,131.68698 M 35.442636,137.0053 44.567676,134.6416 M 41.863961,145.86918 49.975108,143.50547 M 50.651037,137.59623 59.776077,135.23253 M 58.086254,131.98244 67.211294,129.61875 M 63.83165,139.66447 72.280761,137.30076 M 71.266868,132.27791 79.04005,130.80059 M 74.308548,139.66447 82.08173,137.59623 M 79.715979,128.14143 87.151197,129.32328 M 84.447481,140.25539 95.262343,132.27791 M 86.475268,142.32363 94.24845,135.52799 M 44.229712,154.14212 82.419694,142.02817 M 53.016788,147.64195 62.817757,145.57372 M 43.891748,157.39221 68.225188,149.71018 M 54.030681,152.66481 60.452005,150.89204 M 75.660406,146.4601 81.743766,144.0964 M 52.002894,126.36866 17.530523,132.86883 M 71.266868,123.41404 17.868487,115.14109 M 47.271392,124.59588 17.192558,120.45941 M 61.127934,170.0971 33.752814,185.75659 M 156.7719,110.70915 167.2488,104.79991 M 161.5034,121.3458 179.75348,115.73201 M 167.92472,144.39186 184.48498,145.27825 M 161.5034,164.18785 175.35994,168.32431 M 154.74409,170.0971 166.57287,175.71087 M 153.73022,175.71087 160.48951,179.25642 M 139.53569,186.34752 142.57739,189.59761 M 55.720503,159.16498 19.896272,170.39255 M 72.95669,183.09743 64.507579,196.39323 M 92.896592,105.6863 93.910486,106.57268 M 93.572521,104.20898 94.586415,105.09537 M 109.79484,173.05172 C 109.34421,167.73339 111.14668,164.77876 115.20225,164.18785 119.03251,162.80901 122.52482,163.20296 125.67917,165.36969 M 113.85041,175.71087 C 113.17447,172.55928 113.73775,169.60465 115.54024,166.84701 M 122.97544,172.75626 C 125.22854,169.21071 125.34119,166.0591 123.3134,163.30146 M 119.93377,164.4833 119.25783,168.61978 M 121.6236,164.77876 120.94767,170.0971 M 118.24393,166.25608 123.65138,165.36969 M 120.27174,167.14247 123.65138,166.84701 M 116.89209,176.59726 120.6097,176.3018 M 119.93377,158.86952 109.79484,162.1196 M 121.28561,159.46044 110.47077,162.41507 M 110.80871,160.93776 118.58192,162.1196 M 117.23004,169.80163 118.24393,170.68801 M 111.82261,168.02885 112.83652,168.91524 M 111.14668,175.11995 112.16057,176.00633 M 112.49856,189.59761 115.8782,189.00668 M 120.94767,188.41575 125.00324,186.93845 M 112.49856,190.77945 113.51245,191.66584 M 113.51245,191.66584 114.52634,192.55223 M 115.54024,191.66584 116.55413,192.55223 M 117.23004,191.07491 118.24393,191.9613 M 118.58192,190.18852 119.59581,191.07491 M 120.94767,189.59761 121.96154,190.48399 M 122.29951,189.59761 123.3134,190.48399 M 123.98935,189.30214 125.00324,190.18852 M 125.34119,188.71122 126.35508,189.59761 M 131.76253,137.59623 137.50792,134.93707 M 133.11439,139.36901 138.52182,136.41438 M 139.87368,139.66447 141.90146,137.59623 M 137.50792,142.02817 144.26721,139.95992 M 134.46624,142.61909 133.45235,144.98279 M 138.85978,146.4601 138.52182,149.41472 M 140.54959,144.98279 141.90146,148.82379 M 138.85978,147.34649 144.26721,145.27825 M 144.60518,150.00565 147.98482,149.41472 M 153.73022,129.32328 157.10986,127.84597 M 155.42004,131.39152 159.47561,130.20967 M 144.26721,113.66378 146.295,112.77739 M 147.30889,113.95924 150.35057,113.36831 M 136.15607,113.95924 138.52182,109.82276 M 138.18385,113.66378 140.54959,109.23185 M 137.50792,110.11823 141.90146,108.93638 M 137.84589,111.30008 142.91536,110.11823 M 136.832,104.20898 137.84589,105.98176 M 117.90599,127.84597 114.52634,128.73236 M 119.59581,124.59588 115.8782,123.7095 M 123.65138,122.23218 124.32729,118.9821 M 132.43844,124.30043 136.15607,121.93672 M 135.14217,127.5505 139.53569,128.14143 M 153.73022,103.02714 158.79967,99.777052 M 155.42004,104.50444 161.16544,101.25436 M 156.43393,105.6863 163.53119,102.14075 M 157.44783,107.45907 165.89692,103.61805 M 161.16544,116.91386 174.00808,112.48192 M 161.84135,118.68663 166.57287,116.91386 M 162.51729,123.11857 179.41552,118.39118 M 163.86915,125.48227 181.4433,121.64126 M 164.88304,130.20967 175.35994,127.84597 M 165.22101,133.75521 180.76737,129.91421 M 166.91083,135.52799 181.78127,132.86883 M 167.2488,137.30076 175.02198,135.52799 M 167.58676,138.48262 181.78127,135.52799 M 167.58676,139.36901 181.78127,136.11892 M 167.58676,139.95992 182.11923,137.59623 M 167.58676,140.84631 182.4572,139.66447 M 167.58676,141.7327 H 183.80905 M 169.61455,142.61909 183.13312,143.21001 M 167.2488,146.16463 H 174.68401 M 166.57287,147.93741 172.65623,147.34649 M 164.88304,150.89204 169.27658,150.30111 M 164.54508,152.07388 171.64233,151.48296 M 164.20712,153.5512 170.62844,153.25573 M 163.86915,157.09675 177.04975,157.68767 M 164.20712,158.27859 180.42941,160.05137 M 163.86915,160.05137 181.10534,162.41507 M 162.51729,162.41507 179.07755,166.25608 M 163.86915,163.59692 174.00808,166.25608 M 156.09597,173.9381 162.85526,176.89272 M 150.68852,178.37004 153.73022,180.43827 M 146.97093,181.32466 151.36447,184.27929 M 130.41067,189.89307 130.74864,193.14316 M 136.832,187.82483 139.19775,190.48399 M 71.604832,181.91559 62.141828,196.09778 M 69.577046,180.43827 58.424219,192.84769 M 67.549259,178.07458 53.692717,192.55223 M 65.183508,176.89272 49.299179,191.66584 M 64.169614,174.82449 47.271392,189.59761 M 62.817757,173.34717 46.595463,186.34752 M 61.803863,172.46079 42.201925,186.34752 M 60.452005,168.02885 47.609357,174.23356 M 60.114041,166.25608 46.595463,171.27894 M 56.396432,162.41507 41.188032,168.02885 M 56.058468,160.6423 23.275916,171.86987 M 42.877854,155.61943 49.299179,153.84666 M 41.188032,159.75591 46.933428,157.39221 M 65.521472,151.77843 79.04005,147.05102 M 86.813232,139.66447 93.234557,134.93707 M 85.461374,143.80094 91.882699,138.77808 M 84.109517,141.14178 92.220663,136.11892 M 87.151197,136.11892 91.20677,133.75521 M 82.08173,133.1643 89.178983,131.39152 M 87.827126,133.1643 93.910486,131.09605 M 97.966058,130.20967 101.68369,126.95959 M 97.966058,130.80059 104.38739,129.61875 M 98.304018,132.27791 104.04943,134.6416 M 96.952168,134.34614 102.02164,137.0053 M 98.304018,137.0053 106.07721,143.21001 M 104.72535,133.75521 108.105,132.27791 M 106.4152,133.75521 108.44298,133.1643 M 115.8782,134.05068 113.85041,137.30076 M 116.21616,132.27791 113.17447,134.34614 M 117.90599,126.36866 H 114.86429 M 119.59581,123.41404 118.58192,121.3458 M 121.28561,121.93672 120.6097,119.57302 M 126.35508,122.23218 127.70696,119.57302 M 129.73474,121.93672 131.42456,120.16395 M 130.41067,123.41404 133.79032,120.45941 M 133.79032,125.48227 137.16996,124.30043 M 133.79032,126.0732 138.18385,125.48227 M 134.12828,126.66412 H 139.53569 M 140.21164,124.00496 142.23943,126.95959 M 117.90599,110.41369 126.69306,108.93638 M 116.89209,112.77739 128.72085,111.00462 M 122.63749,108.34546 126.35508,111.59554 M 127.70696,110.11823 130.41067,113.36831 M 133.79032,114.84563 134.80421,115.73201 M 134.46624,116.02747 135.48012,116.91386 M 79.715979,151.48296 80.729872,152.36934 M 80.391908,150.89204 81.405801,151.77843 M 82.08173,149.71018 83.095623,150.59657 M 83.433588,149.41472 84.447481,150.30111 M 54.368645,127.84597 55.382539,128.73236 M 55.382539,126.95959 56.396432,127.84597 M 57.072361,126.36866 58.086254,127.25505 M 60.452005,126.0732 61.465899,126.95959 M 64.169614,126.0732 64.845543,125.48227 M 65.859437,125.48227 66.87333,126.36866 M 66.87333,125.18681 67.887223,126.0732 M 67.887223,126.36866 68.901117,127.25505 M 68.563152,125.48227 69.577046,126.36866 M 70.928903,126.0732 71.942797,126.95959 M 77.350228,125.48227 78.364121,126.36866 M 57.072361,123.11857 56.058468,124.59588 M 57.072361,124.59588 58.086254,125.48227 M 74.308548,155.61943 71.604832,158.86952 M 73.632619,158.57405 75.99837,157.98314 75.660406,160.6423 M 72.95669,155.91489 73.970583,156.80128 M 71.942797,156.80128 72.95669,157.68767 M 73.294654,156.50582 74.308548,157.39221 M 66.87333,155.61943 63.83165,158.27859 M 65.859437,158.27859 64.845543,159.75591 M 65.859437,159.75591 66.87333,160.6423 M 65.183508,160.93776 66.197401,161.82414 M 65.859437,160.93776 66.87333,161.82414 M 65.859437,162.1196 66.87333,163.00599 M 66.87333,164.18785 67.887223,165.07423 M 69.577046,161.82414 71.266868,165.07423 M 72.280761,170.68801 74.308548,174.82449 M 69.239081,169.21071 V 172.75626 M 70.928903,173.34717 71.942797,174.23356 M 70.590939,175.71087 71.604832,176.59726 M 73.632619,176.59726 74.646512,177.48365 M 75.322441,176.89272 76.336334,177.77911 M 77.350228,177.77911 78.364121,178.6655 M 75.660406,167.14247 76.674299,168.02885 M 75.660406,168.61978 76.674299,169.50617 M 76.336334,169.50617 77.350228,170.39255 M 77.350228,167.73339 78.364121,168.61978 M 78.364121,169.80163 79.378014,170.68801 M 77.012263,168.32431 82.757659,168.91524 M 133.79032,181.32466 135.8181,178.6655 M 139.19775,175.11995 140.21164,176.00633 M 139.87368,174.23356 140.88757,175.11995 M 140.21164,175.11995 141.22553,176.00633 M 141.22553,176.3018 142.23943,177.18819 M 152.37836,157.39221 158.79967,154.73305 M 153.05429,158.86952 157.10986,156.21036 M 153.73022,160.05137 158.79967,157.09675 M 154.06818,161.23321 158.46172,157.98314 M 153.39225,155.0285 154.74409,159.75591 M 155.758,155.0285 V 160.6423 M 156.43393,162.41507 157.44783,163.30146 M 156.09597,163.59692 157.10986,164.4833 M 158.46172,152.07388 V 148.23288 M 161.84135,139.66447 160.82747,146.16463 M 157.44783,139.95992 161.16544,138.77808 M 157.78577,142.61909 158.79967,143.50547 M 157.78577,143.50547 158.79967,144.39186 M 157.44783,144.39186 158.46172,145.27825 M 144.26721,153.5512 142.23943,154.43759 M 142.57739,159.16498 C 146.90699,157.08302 144.5935,155.88567 145.95704,154.14212 M 147.98482,153.84666 148.99872,154.73305 M 147.98482,154.73305 148.99872,155.61943 M 147.98482,151.77843 148.99872,152.66481 M 147.98482,157.68767 148.99872,158.57405 M 151.36447,162.41507 152.37836,163.30146 M 152.71632,162.71053 153.73022,163.59692 M 152.0404,161.82414 153.05429,162.71053 M 153.05429,164.77876 154.06818,165.66515 M 152.71632,162.41507 153.73022,163.30146 M 153.73022,163.00599 154.74409,163.89238 M 149.67464,164.4833 150.68852,165.36969 M 147.64684,163.00599 148.66075,163.89238 M 147.30889,165.07423 148.32279,165.96062 M 147.64684,160.93776 148.66075,161.82414 M 156.43393,124.59588 157.44783,125.48227 M 156.43393,123.11857 157.44783,124.00496 M 152.0404,116.02747 153.05429,116.91386 M 136.832,158.86952 137.84589,159.75591 M 138.52182,159.75591 139.53569,160.6423 M 152.71632,172.46079 153.73022,173.34717 M 151.36447,173.64264 152.37836,174.52903 M 151.0265,175.11995 152.0404,176.00633 M 149.67464,173.9381 150.68852,174.82449 M 149.33668,174.52903 150.35057,175.41541 M 138.52182,162.41507 V 164.77876 M 92.220663,112.77739 93.234557,113.66378 M 98.641988,114.55017 99.655888,115.43656 M 99.655888,114.55017 100.66978,115.43656 M 111.82261,105.6863 112.83652,106.57268 M 112.83652,104.79991 113.85041,105.6863 M 117.56802,98.595202 118.58192,99.481592 M 118.58192,98.595202 119.59581,99.481592 M 118.58192,99.777052 119.59581,100.66343 M 115.54024,99.777052 116.55413,100.66343 M 38.484316,113.07285 22.937952,109.5273 M 43.215819,126.66412 18.882379,123.7095 M 34.428743,128.14143 22.599987,127.25505 M 34.428743,169.80163 23.951845,173.64264 M 30.035205,174.82449 26.993525,176.00633 M 34.090779,176.89272 30.711134,178.96097 M 34.090779,178.96097 33.076885,181.32466 M 29.021312,163.59692 11.447161,169.80163 M 23.951845,161.52868 13.474949,165.07423 M 42.877854,154.14212 43.891748,155.0285 M 41.525996,154.43759 17.868487,161.23321 M 19.558309,158.27859 9.7573391,162.1196 M 19.558309,156.21036 14.150878,157.98314 M 19.220345,153.84666 11.109196,155.91489 M 17.530523,151.1875 13.812914,152.07388 M 16.516629,146.75556 11.785125,147.34649 M 17.530523,139.66447 14.150878,139.95992 M 18.544416,136.41438 15.502736,137.0053 M 32.062992,131.98244 18.882379,134.05068 M 117.90599,143.21001 118.91986,144.0964 M 118.24393,143.50547 119.25783,144.39186 M 109.45688,163.00599 121.28561,160.05137 M 110.13279,160.34683 112.16057,159.46044 M 110.80871,160.6423 118.91986,157.98314 M 110.47077,161.23321 118.58192,158.57405 M 111.82261,161.52868 121.6236,158.27859 M 109.45688,163.59692 121.96154,160.05137 M 122.29951,160.34683 109.11891,163.89238 M 109.11891,164.77876 122.29951,160.93776 M 123.3134,161.52868 118.58192,162.41507 M 120.27174,162.71053 122.97544,162.1196 M 123.98935,162.41507 120.94767,163.00599 M 109.11891,165.66515 112.16057,164.18785 M 109.11891,165.96062 111.82261,164.77876 M 109.45688,166.25608 112.83652,163.59692 M 109.11891,167.14247 110.47077,165.66515 M 108.44298,168.32431 110.47077,165.96062 M 108.105,170.68801 109.79484,168.91524 M 108.105,171.86987 109.11891,170.68801 M 108.44298,172.75626 109.11891,171.5744 M 108.44298,170.0971 110.13279,167.14247 M 109.79484,161.82414 116.89209,163.00599 M 109.45688,163.00599 113.51245,163.59692 M 114.52634,159.46044 123.65138,162.41507 M 117.56802,158.57405 122.29951,160.05137 M 120.94767,158.27859 122.97544,160.34683 M 116.55413,158.27859 121.96154,158.86952 M 99.317918,139.95992 97.290128,142.91456 M 98.641988,142.32363 96.276238,146.4601 M 101.00775,153.5512 100.33182,158.27859 M 103.71146,154.73305 105.06334,158.57405 M 106.4152,154.43759 107.09111,155.0285 M 108.105,153.84666 V 154.73305 M 110.13279,154.43759 111.14668,155.0285 M 112.83652,154.73305 113.17447,155.0285 M 114.18836,154.73305 114.52634,155.32397 M 116.89209,153.84666 V 154.73305 M 117.90599,153.25573 117.56802,153.84666 M 118.24393,152.66481 118.58192,153.25573 M 118.91986,151.77843 119.59581,152.66481 M 119.59581,151.1875 120.27174,151.48296 M 119.93377,149.71018 120.6097,150.00565 M 121.96154,146.75556 122.97544,146.4601 M 121.96154,144.98279 122.63749,144.68733 M 121.96154,142.91456 122.29951,143.21001 M 122.29951,142.32363 123.3134,142.91456 M 102.02164,154.43759 V 158.27859 M 103.71146,155.32397 100.66978,158.86952 M 105.40128,150.00565 103.71146,150.89204 105.73927,151.77843 M 99.317918,152.36934 98.641988,156.80128 M 122.97544,138.18715 V 137.0053 M 123.98935,137.89169 123.65138,136.11892 M 124.66528,137.0053 125.00324,136.11892 M 126.01712,135.52799 126.35508,136.41438 M 129.39676,134.93707 129.73474,135.82346 M 130.41067,134.34614 131.0866,136.41438 M 131.42456,134.6416 132.10049,135.52799 M 132.77642,134.34614 133.45235,135.23253 M 133.45235,134.05068 134.80421,134.6416 M 119.25783,138.77808 120.6097,136.70985 M 115.8782,138.48262 H 116.55413 M 116.55413,138.77808 H 117.56802 M 126.69306,130.80059 V 129.61875 M 126.01712,131.68698 124.66528,130.20967 M 127.36899,130.50514 127.70696,129.61875 M 128.04492,130.80059 129.05881,130.20967 M 128.38287,131.09605 129.39676,130.50514 M 129.05881,131.98244 128.38287,131.39152 M 128.04492,131.09605 H 126.35508 M 125.67917,131.09605 V 132.57337 M 125.67917,131.98244 124.32729,131.68698 M 125.34119,132.86883 123.98935,133.45976 M 124.66528,133.1643 127.36899,135.52799 M 144.60518,127.5505 145.61907,127.84597 M 146.295,126.95959 147.30889,127.84597 M 147.98482,126.66412 150.35057,129.32328 M 148.66075,126.95959 150.01261,127.5505 M 128.04492,121.64126 128.72085,120.45941 M 120.27174,122.23218 119.59581,121.3458 M 124.66528,121.93672 125.00324,120.75488 M 116.21616,130.20967 114.86429,130.80059 M 117.90599,111.00462 123.98935,110.11823 M 116.89209,111.89101 121.96154,111.00462 M 120.94767,108.34546 123.65138,110.41369 M 119.59581,108.34546 121.6236,110.11823 M 118.91986,109.23185 120.27174,110.70915 M 129.73474,110.70915 133.11439,114.2547 M 115.8782,113.66378 117.90599,113.36831 M 115.54024,114.55017 116.55413,114.2547 M 115.8782,115.14109 116.89209,116.02747 M 114.86429,115.73201 115.8782,116.6184 M 115.8782,115.73201 116.89209,116.6184 M 114.86429,116.6184 115.8782,117.50479 M 114.52634,117.80025 115.54024,118.68663 M 113.85041,120.75488 114.86429,121.64126 M 112.49856,122.52765 113.51245,123.41404 M 130.74864,112.48192 131.76253,113.36831 M 131.42456,113.66378 132.43844,114.55017 M 60.452005,157.98314 59.776077,162.71053 M 62.141828,159.46044 60.78997,163.89238 M 60.78997,159.75591 60.452005,162.41507 M 62.479792,162.71053 62.817757,165.66515 M 63.155721,164.77876 V 166.55154 M 61.803863,161.52868 V 164.18785 M 92.558628,129.02782 93.572521,126.0732 M 95.600308,129.32328 96.614198,126.36866 M 99.317918,129.61875 100.66978,129.02782 M 99.317918,131.39152 101.68369,131.09605 M 99.317918,131.98244 H 99.993848 M 132.10049,189.89307 132.43844,191.37038 M 133.79032,189.00668 134.12828,190.18852 M 135.14217,188.12029 135.8181,189.00668 M 141.90146,185.46113 143.59127,186.34752 M 145.61907,182.50651 146.97093,183.09743 M 152.71632,176.59726 153.73022,177.48365 M 151.70243,177.77911 153.39225,178.37004 M 148.66075,180.43827 151.0265,181.91559 M 111.82261,192.84769 V 194.91593 M 113.51245,192.84769 V 194.62046 M 115.20225,193.43861 115.54024,194.325 M 87.827126,183.09743 87.151197,186.05206 M 80.729872,180.73374 78.702086,183.3929 M 79.04005,178.6655 78.026157,182.50651 M 82.419694,194.62046 83.433588,187.52936 M 79.378014,187.82483 74.308548,198.16601 M 45.58157,98.004272 39.160245,93.572342 M 48.62325,96.526962 41.188032,90.322252 M 40.512103,101.54982 33.752814,97.413342 M 47.947321,98.004272 35.780601,89.731332 M 53.016788,93.572342 54.030681,94.754182 M 60.452005,95.345112 58.086254,92.390492 M 61.803863,95.049652 58.762183,90.913182 M 64.845543,90.026792 61.465899,85.003932 M 157.78577,189.89307 C 161.16544,187.33239 159.37209,184.10159 157.10986,183.68836 154.55675,183.222 151.82608,188.77181 155.1685,192.39919 158.51088,196.02659 161.98942,193.60464 164.01721,184.14984 164.01721,184.14984 165.08186,180.62621 163.19322,181.0292 161.30458,181.43219 162.51729,188.41575 162.51729,188.41575 L 163.19322,193.14316 C 163.19322,193.14316 163.64728,188.54201 164.88304,188.12029 167.81545,187.66551 166.45622,190.36313 168.34415,190.31797 170.23208,190.27281 170.7765,187.07222 170.7765,187.07222 170.7765,187.07222 171.43237,187.38211 171.79039,187.18867 172.14843,186.99522 172.0667,186.47264 172.0667,186.47264 173.12166,187.58471 172.99699,188.76078 174.12917,188.41142 175.26134,188.06207 176.71784,186.9884 176.99802,184.86587 178.85972,185.26745 177.46878,186.77222 179.25533,187.1627 180.37854,186.94158 181.2484,185.7331 183.03954,182.60131 184.48395,184.3526 185.08086,184.49498 184.04847,185.69837 183.01611,186.90177 182.29206,185.58625 182.29206,185.58625 M 176.50209,182.48919 177.59249,182.89677 M 183.29108,175.27731 C 186.05151,172.80213 191.88975,171.44993 194.27878,173.37509 189.34748,174.11711 187.71844,180.18066 188.06717,183.2548 188.41591,186.32894 191.40839,184.46748 192.46071,183.55026"
       inkscape:connector-curvature="0" />
  </g>
</svg>
